HIERARCHY
ROOT Hips
{
	OFFSET 0.717293 88.513641 3.606412
	CHANNELS 6 Xposition Yposition Zposition Zrotation Yrotation Xrotation 
	JOINT Spine
	{
		OFFSET -0.000000 8.814246 -2.080107
		CHANNELS 3 Zrotation Yrotation Xrotation
		JOINT Spine1
		{
			OFFSET -0.000000 8.844141 -0.000000
			CHANNELS 3 Zrotation Yrotation Xrotation
			JOINT Spine2
			{
				OFFSET 0.000000 11.682268 0.000000
				CHANNELS 3 Zrotation Yrotation Xrotation
				JOINT Spine3
				{
					OFFSET 0.000000 11.746700 -0.000000
					CHANNELS 3 Zrotation Yrotation Xrotation
					JOINT Neck
					{
						OFFSET 0.000000 17.658264 0.000000
						CHANNELS 3 Zrotation Yrotation Xrotation
						JOINT Neck1
						{
							OFFSET -0.000000 5.101515 -0.000000
							CHANNELS 3 Zrotation Yrotation Xrotation
							JOINT Head
							{
								OFFSET -0.000000 5.101515 -0.000000
								CHANNELS 3 Zrotation Yrotation Xrotation
								JOINT HeadEnd
								{
									OFFSET -0.000000 11.655085 -0.000000
									CHANNELS 3 Zrotation Yrotation Xrotation
									End Site
									{
										OFFSET 0.000000 0.000000 0.000000
									}
								}
							}
						}
					}
					JOINT RightShoulder
					{
						OFFSET -2.625389 11.175210 -0.000000
						CHANNELS 3 Zrotation Yrotation Xrotation
						JOINT RightArm
						{
							OFFSET 0.000000 10.434715 0.000000
							CHANNELS 3 Zrotation Yrotation Xrotation
							JOINT RightForeArm
							{
								OFFSET 0.000000 29.628420 0.000000
								CHANNELS 3 Zrotation Yrotation Xrotation
								JOINT RightHand
								{
									OFFSET 0.000000 22.857611 -0.000000
									CHANNELS 3 Zrotation Yrotation Xrotation
									JOINT RightHandThumb1
									{
										OFFSET -2.867323 3.959563 2.944291
										CHANNELS 3 Zrotation Yrotation Xrotation
										JOINT RightHandThumb2
										{
											OFFSET 0.000000 3.350399 -0.000000
											CHANNELS 3 Zrotation Yrotation Xrotation
											JOINT RightHandThumb3
											{
												OFFSET 0.000000 3.756509 -0.000000
												CHANNELS 3 Zrotation Yrotation Xrotation
												JOINT RightHandThumb4
												{
													OFFSET -0.000000 3.147345 -0.000000
													CHANNELS 3 Zrotation Yrotation Xrotation
													End Site
													{
														OFFSET 0.000000 0.000000 0.000000
													}
												}
											}
										}
									}
									JOINT RightHandIndex1
									{
										OFFSET -0.086752 10.030893 2.345280
										CHANNELS 3 Zrotation Yrotation Xrotation
										JOINT RightHandIndex2
										{
											OFFSET -0.000000 4.061090 -0.000000
											CHANNELS 3 Zrotation Yrotation Xrotation
											JOINT RightHandIndex3
											{
												OFFSET -0.000000 3.248873 0.000000
												CHANNELS 3 Zrotation Yrotation Xrotation
												JOINT RightHandIndex4
												{
													OFFSET -0.000000 2.639709 0.000000
													CHANNELS 3 Zrotation Yrotation Xrotation
													End Site
													{
														OFFSET 0.000000 0.000000 0.000000
													}
												}
											}
										}
									}
									JOINT RightHandMiddle1
									{
										OFFSET 0.104102 9.502952 0.006768
										CHANNELS 3 Zrotation Yrotation Xrotation
										JOINT RightHandMiddle2
										{
											OFFSET 0.000000 4.568727 -0.000000
											CHANNELS 3 Zrotation Yrotation Xrotation
											JOINT RightHandMiddle3
											{
												OFFSET 0.000000 3.654981 -0.000000
												CHANNELS 3 Zrotation Yrotation Xrotation
												JOINT RightHandMiddle4
												{
													OFFSET 0.000000 2.741236 0.000000
													CHANNELS 3 Zrotation Yrotation Xrotation
													End Site
													{
														OFFSET 0.000000 0.000000 0.000000
													}
												}
											}
										}
									}
									JOINT RightHandRing1
									{
										OFFSET 0.086752 8.921708 -2.267442
										CHANNELS 3 Zrotation Yrotation Xrotation
										JOINT RightHandRing2
										{
											OFFSET -0.000000 4.061090 -0.000000
											CHANNELS 3 Zrotation Yrotation Xrotation
											JOINT RightHandRing3
											{
												OFFSET -0.000000 3.654981 0.000000
												CHANNELS 3 Zrotation Yrotation Xrotation
												JOINT RightHandRing4
												{
													OFFSET -0.000000 2.741236 0.000000
													CHANNELS 3 Zrotation Yrotation Xrotation
													End Site
													{
														OFFSET 0.000000 0.000000 0.000000
													}
												}
											}
										}
									}
									JOINT RightHandPinky1
									{
										OFFSET -0.173504 7.976997 -4.467199
										CHANNELS 3 Zrotation Yrotation Xrotation
										JOINT RightHandPinky2
										{
											OFFSET -0.000000 3.350399 -0.000000
											CHANNELS 3 Zrotation Yrotation Xrotation
											JOINT RightHandPinky3
											{
												OFFSET -0.000000 2.842763 0.000000
												CHANNELS 3 Zrotation Yrotation Xrotation
												JOINT RightHandPinky4
												{
													OFFSET 0.000000 2.639709 -0.000000
													CHANNELS 3 Zrotation Yrotation Xrotation
													End Site
													{
														OFFSET 0.000000 0.000000 0.000000
													}
												}
											}
										}
									}
									JOINT RightForeArmEnd
									{
										OFFSET 0.000000 0.000000 0.000000
										CHANNELS 3 Zrotation Yrotation Xrotation
										End Site
										{
											OFFSET 0.000000 0.000000 0.000000
										}
									}
								}
								JOINT RightArmEnd
								{
									OFFSET 0.000000 0.000000 0.000000
									CHANNELS 3 Zrotation Yrotation Xrotation
									End Site
									{
										OFFSET 0.000000 0.000000 0.000000
									}
								}
							}
						}
					}
					JOINT LeftShoulder
					{
						OFFSET 2.625389 11.175210 -0.000000
						CHANNELS 3 Zrotation Yrotation Xrotation
						JOINT LeftArm
						{
							OFFSET 0.000000 10.813635 0.000000
							CHANNELS 3 Zrotation Yrotation Xrotation
							JOINT LeftForeArm
							{
								OFFSET -0.000000 28.724781 -0.000000
								CHANNELS 3 Zrotation Yrotation Xrotation
								JOINT LeftHand
								{
									OFFSET 0.644384 25.716167 -0.328871
									CHANNELS 3 Zrotation Yrotation Xrotation
									JOINT LeftHandThumb1
									{
										OFFSET 2.867323 3.959563 2.944291
										CHANNELS 3 Zrotation Yrotation Xrotation
										JOINT LeftHandThumb2
										{
											OFFSET 0.000000 3.350399 0.000000
											CHANNELS 3 Zrotation Yrotation Xrotation
											JOINT LeftHandThumb3
											{
												OFFSET 0.000000 3.756509 0.000000
												CHANNELS 3 Zrotation Yrotation Xrotation
												JOINT LeftHandThumb4
												{
													OFFSET -0.000000 3.100000 0.000000
													CHANNELS 3 Zrotation Yrotation Xrotation
													End Site
													{
														OFFSET 0.000000 0.000000 0.000000
													}
												}
											}
										}
									}
									JOINT LeftHandIndex1
									{
										OFFSET 0.086752 10.030893 2.345280
										CHANNELS 3 Zrotation Yrotation Xrotation
										JOINT LeftHandIndex2
										{
											OFFSET -0.000000 4.061090 -0.000000
											CHANNELS 3 Zrotation Yrotation Xrotation
											JOINT LeftHandIndex3
											{
												OFFSET -0.000000 3.248873 -0.000000
												CHANNELS 3 Zrotation Yrotation Xrotation
												JOINT LeftHandIndex4
												{
													OFFSET -0.000000 2.639709 -0.000000
													CHANNELS 3 Zrotation Yrotation Xrotation
													End Site
													{
														OFFSET 0.000000 0.000000 0.000000
													}
												}
											}
										}
									}
									JOINT LeftHandMiddle1
									{
										OFFSET -0.104102 9.502952 0.006768
										CHANNELS 3 Zrotation Yrotation Xrotation
										JOINT LeftHandMiddle2
										{
											OFFSET 0.000000 4.568727 -0.000000
											CHANNELS 3 Zrotation Yrotation Xrotation
											JOINT LeftHandMiddle3
											{
												OFFSET 0.000000 3.654981 0.000000
												CHANNELS 3 Zrotation Yrotation Xrotation
												JOINT LeftHandMiddle4
												{
													OFFSET 0.000000 2.741236 0.000000
													CHANNELS 3 Zrotation Yrotation Xrotation
													End Site
													{
														OFFSET 0.000000 0.000000 0.000000
													}
												}
											}
										}
									}
									JOINT LeftHandRing1
									{
										OFFSET -0.086752 8.921708 -2.267442
										CHANNELS 3 Zrotation Yrotation Xrotation
										JOINT LeftHandRing2
										{
											OFFSET -0.000000 4.061090 -0.000000
											CHANNELS 3 Zrotation Yrotation Xrotation
											JOINT LeftHandRing3
											{
												OFFSET 0.000000 3.654981 0.000000
												CHANNELS 3 Zrotation Yrotation Xrotation
												JOINT LeftHandRing4
												{
													OFFSET -0.000000 2.741236 -0.000000
													CHANNELS 3 Zrotation Yrotation Xrotation
													End Site
													{
														OFFSET 0.000000 0.000000 0.000000
													}
												}
											}
										}
									}
									JOINT LeftHandPinky1
									{
										OFFSET 0.173504 7.976997 -4.467199
										CHANNELS 3 Zrotation Yrotation Xrotation
										JOINT LeftHandPinky2
										{
											OFFSET 0.000000 3.350399 -0.000000
											CHANNELS 3 Zrotation Yrotation Xrotation
											JOINT LeftHandPinky3
											{
												OFFSET 0.000000 2.842763 0.000000
												CHANNELS 3 Zrotation Yrotation Xrotation
												JOINT LeftHandPinky4
												{
													OFFSET -0.000000 2.639709 -0.000000
													CHANNELS 3 Zrotation Yrotation Xrotation
													End Site
													{
														OFFSET 0.000000 0.000000 0.000000
													}
												}
											}
										}
									}
									JOINT LeftForeArmEnd
									{
										OFFSET 0.000000 0.000000 0.000000
										CHANNELS 3 Zrotation Yrotation Xrotation
										End Site
										{
											OFFSET 0.000000 0.000000 0.000000
										}
									}
								}
								JOINT LeftArmEnd
								{
									OFFSET 0.000000 0.000000 0.000000
									CHANNELS 3 Zrotation Yrotation Xrotation
									End Site
									{
										OFFSET 0.000000 0.000000 0.000000
									}
								}
							}
						}
					}
				}
			}
		}
	}
	JOINT RightUpLeg
	{
		OFFSET -11.289943 0.000000 -0.000000
		CHANNELS 3 Zrotation Yrotation Xrotation
		JOINT RightLeg
		{
			OFFSET 0.000000 -38.200325 -0.000000
			CHANNELS 3 Zrotation Yrotation Xrotation
			JOINT RightFoot
			{
				OFFSET -0.000000 -39.900856 -0.000000
				CHANNELS 3 Zrotation Yrotation Xrotation
				JOINT RightToeBase
				{
					OFFSET -0.000000 0.000000 15.261641
					CHANNELS 3 Zrotation Yrotation Xrotation
					JOINT RightToeBaseEnd
					{
						OFFSET 0.000000 0.000000 7.370709
						CHANNELS 3 Zrotation Yrotation Xrotation
						End Site
						{
							OFFSET 0.000000 0.000000 0.000000
						}
					}
				}
				JOINT RightLegEnd
				{
					OFFSET 0.000000 0.000000 0.000000
					CHANNELS 3 Zrotation Yrotation Xrotation
					End Site
					{
						OFFSET 0.000000 0.000000 0.000000
					}
				}
			}
			JOINT RightUpLegEnd
			{
				OFFSET 0.000000 0.000000 0.000000
				CHANNELS 3 Zrotation Yrotation Xrotation
				End Site
				{
					OFFSET 0.000000 0.000000 0.000000
				}
			}
		}
	}
	JOINT LeftUpLeg
	{
		OFFSET 11.315661 -0.000000 -0.000000
		CHANNELS 3 Zrotation Yrotation Xrotation
		JOINT LeftLeg
		{
			OFFSET 0.000000 -38.200325 0.000000
			CHANNELS 3 Zrotation Yrotation Xrotation
			JOINT LeftFoot
			{
				OFFSET 0.000000 -39.900856 0.000000
				CHANNELS 3 Zrotation Yrotation Xrotation
				JOINT LeftToeBase
				{
					OFFSET 0.000000 -0.000000 15.261641
					CHANNELS 3 Zrotation Yrotation Xrotation
					JOINT LeftToeBaseEnd
					{
						OFFSET -0.000000 0.000000 7.539996
						CHANNELS 3 Zrotation Yrotation Xrotation
						End Site
						{
							OFFSET 0.000000 0.000000 0.000000
						}
					}
				}
				JOINT LeftLegEnd
				{
					OFFSET 0.000000 0.000000 0.000000
					CHANNELS 3 Zrotation Yrotation Xrotation
					End Site
					{
						OFFSET 0.000000 0.000000 0.000000
					}
				}
			}
			JOINT LeftUpLegEnd
			{
				OFFSET 0.000000 0.000000 0.000000
				CHANNELS 3 Zrotation Yrotation Xrotation
				End Site
				{
					OFFSET 0.000000 0.000000 0.000000
				}
			}
		}
	}
}
MOTION
Frames: 4
Frame Time: 0.016667
0.717293 88.513641 3.606412 -0.807625 -0.145498 -10.211953 2.974575 -0.200603 8.045942 0.343280 -0.161376 3.810282 0.356144 -1.985393 3.162312 -0.570617 -0.651933 1.640799 0.102534 -1.376300 4.726995 -0.786954 -0.955029 -2.695320 -0.607556 -0.996725 -19.207796 0.000000 0.000000 0.000000 90.633385 -0.099940 10.407545 65.336456 -33.843838 4.224480 -0.450088 10.791811 20.358622 7.570276 13.503039 -6.307324 10.937046 -1.865515 39.738762 0.000000 0.000000 -26.639997 0.000000 0.000000 -18.499998 0.000000 0.000000 0.000000 13.612741 0.000000 -9.950699 9.528920 0.000000 0.000000 9.528920 0.000000 0.000000 0.000000 0.000000 0.000000 12.607718 -0.000000 -10.819229 8.825400 0.000000 0.000000 8.825400 0.000000 0.000000 0.000000 0.000000 0.000000 14.150433 -0.000000 -9.929859 9.905301 0.000000 0.000000 9.905301 0.000000 0.000000 0.000000 0.000000 0.000000 14.986264 0.000000 -10.561732 10.490384 0.000000 0.000000 10.490384 0.000000 0.000000 0.000000 0.000000 0.000000 0.000000 0.000000 0.000000 0.000000 0.000000 0.000000 -87.418159 -0.270548 6.233880 -75.998817 26.272923 -6.204398 -0.339548 -5.544444 38.662571 0.678041 -17.794977 -13.609646 -10.637670 1.840800 39.870983 0.000000 0.000000 -25.919998 0.000000 0.000000 -18.000004 0.000000 0.000000 0.000000 -12.784686 -0.000000 -9.414296 -8.949280 0.000000 0.000000 -8.949280 0.000000 0.000000 0.000000 0.000000 0.000000 -12.048728 -0.000000 -10.392732 -8.434110 0.000000 0.000000 -8.434110 0.000000 0.000000 0.000000 0.000000 0.000000 -13.654737 -0.000000 -11.575627 -9.558316 0.000000 0.000000 -9.558316 0.000000 0.000000 0.000000 0.000000 0.000000 -14.250447 -0.000000 -12.885098 -9.975311 0.000000 0.000000 -9.975311 0.000000 0.000000 0.000000 0.000000 0.000000 0.000000 0.000000 0.000000 0.000000 0.000000 0.000000 1.136141 -14.518364 12.126021 -0.031131 -0.345450 4.775295 -3.873879 -13.260001 19.727701 -0.519588 0.644877 -18.908152 0.000000 0.000000 0.000000 0.000000 0.000000 0.000000 0.000000 0.000000 0.000000 8.610489 -1.127510 2.905101 0.263057 0.928557 15.818080 -1.732145 6.252617 17.146843 1.232856 -0.489963 -24.107113 0.000000 0.000000 0.000000 0.000000 0.000000 0.000000 0.000000 0.000000 0.000000 
0.708473 87.918915 3.349725 -1.270966 -0.327234 -9.605616 3.512906 -0.720982 6.991678 1.349090 -0.520845 4.814430 -0.478207 -1.476027 2.448826 -1.169114 -0.577535 3.780599 -0.369496 -0.444521 3.845504 -0.794316 -0.688182 -3.663925 -0.747614 -0.870945 -18.192953 0.000000 0.000000 0.000000 89.897614 -0.216110 9.716166 65.308670 -31.980604 5.801111 -0.148718 12.990987 20.659855 7.681696 11.496055 -4.913797 10.811852 -1.878863 39.657833 -0.000001 0.000031 -26.430979 0.000006 0.000043 -18.075912 0.000008 -0.000004 -0.000025 13.145735 0.022572 -10.011154 9.124595 -0.048601 0.036267 9.142690 -0.021890 0.016634 -0.000029 0.000046 -0.000034 12.639026 0.015443 -10.986399 8.567736 -0.022177 0.001351 8.654815 -0.003607 -0.000333 0.000027 0.000007 0.000007 14.832219 -0.060592 -10.557527 9.714243 0.025655 0.060532 9.698478 -0.005121 0.038325 -0.000018 0.000404 0.000022 15.469548 -0.149091 -11.549071 10.388309 0.023395 0.387213 10.197641 -0.035451 0.310475 0.000352 -0.000005 0.000008 0.000000 0.000000 0.000000 0.000000 0.000000 0.000000 -87.089119 -0.215586 6.876954 -74.509796 25.840816 -5.379390 -0.513166 -9.012055 39.826393 1.454823 -15.349603 -14.030935 -10.398252 1.815797 39.812454 -0.000006 0.000026 -25.536501 -0.000056 -0.000025 -17.584845 -0.000575 -0.000007 0.000345 -12.999869 0.114635 -9.406280 -8.968836 -0.032935 0.031205 -9.187144 -0.006379 0.024409 0.000010 -0.000089 -0.000014 -12.209820 0.047832 -10.317434 -8.665616 -0.023946 0.018567 -8.435337 0.000411 0.022417 -0.000186 -0.000029 -0.000088 -13.674194 -0.015765 -10.939310 -9.698848 0.040920 -0.093217 -9.564923 0.001949 -0.055463 0.000476 0.000009 0.000004 -13.649744 -0.097762 -11.928376 -10.059958 0.045320 -0.232188 -10.069633 -0.020619 -0.207746 0.000063 -0.000013 -0.000031 0.000000 0.000000 0.000000 0.000000 0.000000 0.000000 1.796056 -14.793870 11.563107 0.016953 -0.422659 4.959865 -5.153552 -13.632875 20.193672 -0.767935 0.553518 -18.854841 0.000000 0.000000 0.000000 0.000000 0.000000 0.000000 0.000000 0.000000 0.000000 8.366967 -0.411801 3.747347 0.284822 0.914883 14.811190 -3.149295 6.010285 21.880095 0.810908 -0.450003 -22.982819 0.000000 0.000000 0.000000 0.000000 0.000000 0.000000 0.000000 0.000000 0.000000 
0.626835 87.893471 3.300635 -1.235772 -0.147458 -9.674580 3.515744 -0.719557 6.954094 1.336277 -0.514454 4.901568 -0.527989 -1.462448 2.411757 -1.142426 -0.581044 3.925092 -0.291103 -0.525812 3.903108 -0.802142 -0.749823 -3.580180 -0.755781 -0.868394 -18.234411 0.000000 0.000000 0.000000 89.971931 -0.236656 9.721766 65.160912 -31.739183 5.848568 -0.166041 13.084602 20.827019 7.782881 11.489394 -5.150398 10.783099 -1.877565 39.674923 -0.000008 0.000053 -26.323195 0.000019 0.000036 -18.006798 0.000020 0.000005 -0.000042 13.034846 0.025415 -9.846598 8.999125 -0.050755 0.038115 8.989323 -0.023028 0.019837 -0.000009 0.000061 -0.000025 12.512754 0.015777 -10.865689 8.456791 -0.023737 0.003286 8.534770 -0.004197 0.000728 0.000021 -0.000011 -0.000009 14.684916 -0.062969 -10.470119 9.604404 0.027225 0.052079 9.598393 -0.003431 0.032021 -0.000025 0.000371 0.000002 15.338977 -0.154513 -11.474987 10.330970 0.029972 0.362444 10.134551 -0.031512 0.294857 0.000385 0.000006 0.000014 0.000000 0.000000 0.000000 0.000000 0.000000 0.000000 -87.059982 -0.224364 6.798423 -74.484505 25.726103 -5.238971 -0.507916 -9.050033 39.959229 1.249334 -15.118372 -14.082071 -10.340756 1.802911 39.839893 0.000013 0.000028 -25.410574 -0.000055 -0.000011 -17.495499 -0.000688 0.000005 0.000238 -12.722136 0.120763 -9.392290 -8.865982 -0.033215 0.031321 -9.075824 -0.006482 0.021333 0.000023 -0.000047 -0.000005 -11.913459 0.050011 -10.343518 -8.589506 -0.024311 0.015953 -8.362195 0.000391 0.022173 -0.000279 -0.000019 -0.000107 -13.406484 -0.015640 -11.039666 -9.634067 0.041075 -0.092039 -9.502656 0.002086 -0.054374 0.000504 0.000015 0.000010 -13.431114 -0.098979 -12.062398 -10.030370 0.044159 -0.227858 -10.060605 -0.021309 -0.203551 0.000073 0.000010 -0.000052 0.000000 0.000000 0.000000 0.000000 0.000000 0.000000 1.811785 -15.005766 11.526655 0.016238 -0.412007 4.945859 -5.308096 -13.625357 20.155304 -0.748821 0.534453 -18.874228 0.000000 0.000000 0.000000 0.000000 0.000000 0.000000 0.000000 0.000000 0.000000 8.518056 -0.415706 3.556753 0.292273 0.931785 14.885201 -3.251129 5.769343 21.958700 0.825267 -0.465405 -23.074287 0.000000 0.000000 0.000000 0.000000 0.000000 0.000000 0.000000 0.000000 0.000000 
0.563473 87.876587 3.259532 -1.175158 0.023939 -9.729028 3.503724 -0.707381 6.940943 1.339788 -0.512458 4.913353 -0.592810 -1.396680 2.440238 -1.126360 -0.569306 4.008151 -0.273528 -0.563332 3.914259 -0.811802 -0.801164 -3.526372 -0.750527 -0.863281 -18.287720 0.000000 0.000000 0.000000 89.996681 -0.229602 9.773664 65.233948 -31.332016 5.705739 -0.187352 13.284939 21.254896 7.615062 11.446417 -5.314853 10.761501 -1.877435 39.686996 -0.000008 0.000052 -26.242441 0.000019 0.000037 -17.955128 0.000020 0.000005 -0.000042 12.891006 0.026434 -9.726264 8.885337 -0.052074 0.037956 8.849617 -0.023281 0.020580 -0.000010 0.000061 -0.000025 12.367358 0.015214 -10.793960 8.359624 -0.024445 0.004006 8.435491 -0.004502 0.000870 0.000021 -0.000009 -0.000008 14.551723 -0.063959 -10.455748 9.508512 0.027638 0.046575 9.509550 -0.002584 0.027988 -0.000023 0.000425 0.000002 15.213274 -0.154951 -11.503004 10.268970 0.033285 0.349440 10.072617 -0.030934 0.286224 0.000426 0.000006 0.000007 0.000000 0.000000 0.000000 0.000000 0.000000 0.000000 -86.991959 -0.225243 6.754289 -74.472069 25.593384 -5.127234 -0.495841 -9.104383 40.143265 1.243152 -14.885951 -14.019400 -10.300390 1.795948 39.858067 0.000014 0.000028 -25.329762 -0.000053 -0.000012 -17.434433 -0.000724 0.000004 0.000197 -12.510221 0.122047 -9.278967 -8.761939 -0.033643 0.030417 -8.963327 -0.006819 0.018131 0.000020 0.000004 -0.000005 -11.695620 0.050404 -10.277804 -8.509092 -0.024947 0.013302 -8.286271 0.000228 0.021622 -0.000361 -0.000019 -0.000119 -13.208973 -0.014025 -11.057534 -9.561927 0.041435 -0.090326 -9.439582 0.002154 -0.052578 0.000516 0.000014 0.000010 -13.285203 -0.099544 -12.131221 -9.984418 0.043739 -0.222936 -10.030585 -0.022064 -0.196045 0.000057 0.000010 -0.000052 0.000000 0.000000 0.000000 0.000000 0.000000 0.000000 1.789874 -15.172778 11.506458 0.016689 -0.402899 4.930452 -5.436494 -13.649707 20.127073 -0.739744 0.518834 -18.883493 0.000000 0.000000 0.000000 0.000000 0.000000 0.000000 0.000000 0.000000 0.000000 8.587262 -0.449496 3.434389 0.296442 0.942971 14.902184 -3.323834 5.580700 22.023127 0.835268 -0.478459 -23.142508 0.000000 0.000000 0.000000 0.000000 0.000000 0.000000 0.000000 0.000000 0.000000 
